<?xml version="1.0" encoding="UTF-8" standalone="no"?>
<!-- Created with Inkscape (http://www.inkscape.org/) -->

<svg
   width="350mm"
   height="600mm"
   viewBox="0 0 350 600"
   version="1.1"
   id="svg1"
   inkscape:version="1.4.3 (0d15f75, 2025-12-25)"
   sodipodi:docname="projeto_agro_maquete.svg"
   xmlns:inkscape="http://www.inkscape.org/namespaces/inkscape"
   xmlns:sodipodi="http://sodipodi.sourceforge.net/DTD/sodipodi-0.dtd"
   xmlns="http://www.w3.org/2000/svg"
   xmlns:svg="http://www.w3.org/2000/svg">
  <sodipodi:namedview
     id="namedview1"
     pagecolor="#ffffff"
     bordercolor="#000000"
     borderopacity="0.25"
     inkscape:showpageshadow="2"
     inkscape:pageopacity="0.0"
     inkscape:pagecheckerboard="0"
     inkscape:deskcolor="#d1d1d1"
     inkscape:document-units="mm"
     showguides="true"
     inkscape:zoom="0.25"
     inkscape:cx="-2980"
     inkscape:cy="630"
     inkscape:window-width="1920"
     inkscape:window-height="1009"
     inkscape:window-x="-8"
     inkscape:window-y="-8"
     inkscape:window-maximized="1"
     inkscape:current-layer="layer1" />
  <defs
     id="defs1" />
  <g
     inkscape:label="Camada 1"
     inkscape:groupmode="layer"
     id="layer1">
    <path
       id="path2-4-2"
       style="fill:#d4ff2a;stroke:#ff0000;stroke-width:0.03;stroke-linecap:square;stroke-linejoin:bevel;stroke-dasharray:none;paint-order:markers fill stroke"
       d="m 543.63026,204.37665 c 76.81409,145.53869 -67.99088,179.01647 -69.99419,289.93785 l 20.57084,-0.006 v -2.95537 h 29.95477 v 2.95537 l 30.89888,-5.1e-4 v -2.95538 h 29.95529 v 2.95538 h 30.89889 v -2.95538 h 29.95528 v 2.95538 l 17.73432,0.005 -0.0289,-26.81696 h -2.95538 v -29.95528 h 2.95538 V 398.3524 h -2.95538 v -29.95528 h 2.95538 v -39.18831 h -2.95542 v -29.95475 h 2.95538 v -39.18882 h -2.95538 v -29.95528 h 2.95538 l -0.003,-25.73176 h -14.21836 v 2.95382 h -29.95527 v -2.95434 l -20.95945,-5.1e-4 v 2.95485 h -29.95527 v -2.95485 z"
       sodipodi:nodetypes="ccccccccccccccccccccccccccccccccccccccccc" />
    <rect
       style="fill:#00ffff;stroke:#ff0000;stroke-width:0.03;stroke-linecap:square;stroke-linejoin:bevel;stroke-dasharray:none;paint-order:markers fill stroke"
       id="rect2-7-2-4-2-8-9-11-6-7-4"
       width="29.955217"
       height="2.9552176"
       x="384.405"
       y="-327.06116"
       ry="0" />
    <rect
       style="fill:#00ffff;stroke:#ff0000;stroke-width:0.03;stroke-linecap:square;stroke-linejoin:bevel;stroke-dasharray:none;paint-order:markers fill stroke"
       id="rect2-7-2-4-2-8-7"
       width="29.955217"
       height="2.9552176"
       x="430.03189"
       y="-322.29861"
       ry="0" />
    <path
       id="path2-4-9"
       style="fill:#d4ff2a;stroke:#ff0000;stroke-width:0.03;stroke-linecap:square;stroke-linejoin:bevel;stroke-dasharray:none;paint-order:markers fill stroke"
       d="M -636.59835 94.621615 C -575.24585 210.86545 -655.22395 255.64888 -690.94749 325.47471 L -681.46745 329.83155 L -706.52432 384.34915 L -706.58323 384.32124 C -706.58523 384.40124 -706.59101 384.47885 -706.59201 384.55896 L -686.02118 384.55327 L -686.02118 381.5979 L -656.06641 381.5979 L -656.06641 384.55327 L -625.16753 384.55275 L -625.16753 381.59738 L -595.21225 381.59738 L -595.21225 384.55275 L -564.31388 384.55275 L -564.31388 381.59738 L -534.3586 381.59738 L -534.3586 384.55275 L -506.04095 384.55792 L -506.06989 357.74095 L -509.02526 357.74095 L -509.02526 327.78568 L -506.06989 327.78568 L -506.06989 288.59737 L -509.02526 288.59737 L -509.02526 258.64209 L -506.06989 258.64209 L -506.06989 219.45379 L -509.02526 219.45379 L -509.02526 189.49903 L -506.06989 189.49903 L -506.06989 150.31021 L -509.02526 150.31021 L -509.02526 120.35493 L -506.06989 120.35493 L -506.07299 94.623165 L -530.87457 94.623165 L -530.87457 97.57699 L -560.82985 97.57699 L -560.82985 94.622648 L -581.78929 94.622131 L -581.78929 97.57699 L -611.74457 97.57699 L -611.74457 94.622131 L -636.59835 94.621615 z M -566.99433 329.45017 A 3.4761407 3.5171084 0 0 1 -563.51806 332.96727 A 3.4761407 3.5171084 0 0 1 -566.99433 336.48437 A 3.4761407 3.5171084 0 0 1 -570.47061 332.96727 A 3.4761407 3.5171084 0 0 1 -566.99433 329.45017 z M -580.48291 332.91198 A 3.4761407 3.5171084 0 0 0 -580.4886 332.99104 A 3.4761407 3.5171084 0 0 0 -580.48705 333.0143 A 3.4940228 3.4940228 0 0 1 -580.50617 332.96779 A 3.4940228 3.4940228 0 0 1 -580.48291 332.91198 z M -573.5376 332.92025 A 3.4940228 3.4940228 0 0 1 -573.51796 332.96779 A 3.4940228 3.4940228 0 0 1 -573.55362 333.24064 A 3.4761407 3.5171084 0 0 0 -573.53605 332.99104 A 3.4761407 3.5171084 0 0 0 -573.5376 332.92025 z " />
    <path
       id="path2-4-9-4"
       style="fill:#d4ff2a;stroke:#ff0000;stroke-width:0.03;stroke-linecap:square;stroke-linejoin:bevel;stroke-dasharray:none;paint-order:markers fill stroke"
       d="m -119.74217,-337.60516 c 61.3525,116.24384 -18.6256,161.02727 -54.34914,230.85308 l 9.48004,4.35684 -25.05687,54.517603 -0.0589,-0.0279 c -0.002,0.08 -0.008,0.15761 -0.009,0.23773 l 20.57083,-0.006 v -2.95537 h 29.95477 v 2.95537 l 30.89888,-5.2e-4 v -2.95537 h 29.95528 v 2.95537 h 30.89837 v -2.95537 h 29.95528 v 2.95537 l 28.31765,0.005 -0.0289,-26.81697 H 7.83075 v -29.955273 h 2.95537 v -39.18831 H 7.83075 v -29.95528 h 2.95537 v -39.1883 H 7.83075 v -29.95476 h 2.95537 v -39.18881 H 7.83075 v -29.95529 h 2.95537 l -0.003,-25.73176 h -24.80158 v 2.95382 h -29.95528 v -2.95434 l -20.95944,-5.2e-4 v 2.95486 h -29.95528 v -2.95486 z m 69.60402,234.82854 a 3.4761407,3.5171084 0 0 1 3.47627,3.517113 3.4761407,3.5171084 0 0 1 -3.47627,3.5171 3.4761407,3.5171084 0 0 1 -3.47628,-3.5171 3.4761407,3.5171084 0 0 1 3.47628,-3.517113 z m -13.48858,3.461813 a 3.4761407,3.5171084 0 0 0 -0.006,0.0791 3.4761407,3.5171084 0 0 0 0.002,0.0233 3.4940228,3.4940228 0 0 1 -0.0191,-0.0465 3.4940228,3.4940228 0 0 1 0.0233,-0.0558 z m 6.94531,0.008 a 3.4940228,3.4940228 0 0 1 0.0196,0.0475 3.4940228,3.4940228 0 0 1 -0.0357,0.27285 3.4761407,3.5171084 0 0 0 0.0176,-0.24959 3.4761407,3.5171084 0 0 0 -0.002,-0.0708 z" />
    <path
       id="path2-4-1-2"
       style="fill:#d4ff2a;stroke:#ff0000;stroke-width:0.03;stroke-linecap:square;stroke-linejoin:bevel;stroke-dasharray:none;paint-order:markers fill stroke"
       d="m -636.59839,824.41185 c 61.3525,-116.2444 -18.62559,-161.0278 -54.34913,-230.8537 l 9.48004,-4.3568 -25.05687,-54.5176 -0.0589,0.027 c -0.002,-0.08 -0.008,-0.1576 -0.009,-0.2377 l 20.57083,0.01 v 2.9554 h 29.95477 v -2.9554 l 30.89889,5e-4 v 2.9554 h 29.95523 v -2.9554 h 30.89858 v 2.9554 h 29.95528 v -2.9554 l 28.31765,-0.01 -0.0289,26.817 h -2.95538 v 29.9553 h 2.95538 v 39.1883 h -2.95538 v 29.9553 h 2.95538 v 39.1883 h -2.95538 v 29.9547 h 2.95538 v 39.1891 h -2.95538 v 29.9554 h 2.95538 l -0.003,25.7319 h -24.80174 v -2.9538 h -29.95526 v 2.9543 l -20.95945,6e-4 v -2.9549 h -29.95527 v 2.9549 z"
       sodipodi:nodetypes="ccccccccccccccccccccccccccccccccccccccccccccc" />
    <path
       id="path2-4-8-9-1"
       style="fill:#d4ff2a;stroke:#ff0000;stroke-width:0.03;stroke-linecap:square;stroke-linejoin:bevel;stroke-dasharray:none;paint-order:markers fill stroke"
       d="m 145.10076,-337.60562 -24.85378,5.1e-4 v 2.95486 H 90.291692 v -2.95486 l -20.95945,5.2e-4 v 2.95434 h -29.95527 v -2.95383 h -24.80211 l -0.0031,25.73177 h 2.95538 v 29.95528 h -2.95538 v 39.18882 h 2.95538 v 29.95476 h -2.95538 v 39.1883 h 2.95538 v 29.95528 h -2.95538 v 39.18831 h 2.95538 v 29.955273 h -2.95538 l -0.02842,26.81697 28.31765,-0.0052 v -2.95538 h 29.95528 v 2.95538 h 30.898388 v -2.95538 h 29.95528 v 2.95538 l 30.89889,5.1e-4 v -2.95537 h 29.95476 v 2.95537 l 20.57084,0.0062 c -10e-4,-0.0801 -0.007,-0.15823 -0.009,-0.23823 l -0.0589,0.02791 -25.05687,-54.517603 9.48005,-4.35684 C 163.72643,-176.57834 83.748242,-221.3618 145.10076,-337.60562 Z m -72.543908,229.84075 h 10.98848 v 11.988413 h -10.98848 z m 5.49424,31.958773 a 4.983326,4.983326 0 0 1 4.98316,4.98316 4.983326,4.983326 0 0 1 -4.98316,4.98316 4.983326,4.983326 0 0 1 -4.98316,-4.98316 4.983326,4.983326 0 0 1 4.98316,-4.98316 z m 9.50175,1.81177 a 2.997164,2.997164 0 0 1 0.1018,0.01602 2.9846151,2.9832892 0 0 0 -0.0894,-0.0021 2.9846151,2.9832892 0 0 0 -0.05581,0.0041 2.997164,2.997164 0 0 1 0.04341,-0.01809 z m -2.96675,2.92489 a 2.9846151,2.9832892 0 0 0 -0.0052,0.07235 2.9846151,2.9832892 0 0 0 0.0052,0.07234 2.997164,2.997164 0 0 1 -0.02997,-0.07234 2.997164,2.997164 0 0 1 0.02997,-0.07235 z m 3.11764,3.04581 a 2.997164,2.997164 0 0 1 -0.15089,0.02377 2.997164,2.997164 0 0 1 -0.04341,-0.01809 2.9846151,2.9832892 0 0 0 0.05581,0.0041 2.9846151,2.9832892 0 0 0 0.13849,-0.0098 z" />
    <path
       id="path2-4-8-9-1-9"
       style="fill:#d4ff2a;stroke:#ff0000;stroke-width:0.03;stroke-linecap:square;stroke-linejoin:bevel;stroke-dasharray:none;paint-order:markers fill stroke"
       d="m -225.6066,94.62062 -24.85378,5.1e-4 v 2.95486 h -29.95527 v -2.95486 l -20.95945,5.2e-4 v 2.95434 h -29.95527 v -2.95383 h -24.80211 l -0.003,25.73177 h 2.95538 v 29.95528 h -2.95538 v 39.18882 h 2.95538 v 29.95476 h -2.95538 v 39.1883 h 2.95538 v 29.95528 h -2.95538 v 39.18831 h 2.95538 v 29.95527 h -2.95538 l -0.0284,26.81697 28.31765,-0.005 v -2.95538 h 29.95528 v 2.95538 h 30.89837 v -2.95538 h 29.95528 v 2.95538 l 30.89889,5.1e-4 v -2.95537 h 29.95476 v 2.95537 l 20.57084,0.006 c -0.001,-0.0801 -0.007,-0.15823 -0.009,-0.23823 l -0.0589,0.0279 -25.05687,-54.5176 9.48005,-4.35684 C -206.98093,255.6479 -286.9591,210.86444 -225.6066,94.62062 Z m -72.54389,229.84075 h 10.98848 v 11.98841 h -10.98848 z m 5.49424,31.95877 a 4.983326,4.983326 0 0 1 4.98316,4.98316 4.983326,4.983326 0 0 1 -4.98316,4.98316 4.983326,4.983326 0 0 1 -4.98316,-4.98316 4.983326,4.983326 0 0 1 4.98316,-4.98316 z m 9.50175,1.81177 a 2.997164,2.997164 0 0 1 0.1018,0.016 2.9846151,2.9832892 0 0 0 -0.0894,-0.002 2.9846151,2.9832892 0 0 0 -0.0558,0.004 2.997164,2.997164 0 0 1 0.0434,-0.0181 z m -2.96675,2.92489 a 2.9846151,2.9832892 0 0 0 -0.005,0.0724 2.9846151,2.9832892 0 0 0 0.005,0.0723 2.997164,2.997164 0 0 1 -0.03,-0.0723 2.997164,2.997164 0 0 1 0.03,-0.0724 z m 3.11764,3.04581 a 2.997164,2.997164 0 0 1 -0.15089,0.0238 2.997164,2.997164 0 0 1 -0.0434,-0.0181 2.9846151,2.9832892 0 0 0 0.0558,0.004 2.9846151,2.9832892 0 0 0 0.13849,-0.01 z" />
    <path
       id="rect2-7-2-4-2-8-9-13-5-5"
       style="fill:#ff0000;stroke:#ff0000;stroke-width:0.03;stroke-linecap:square;stroke-linejoin:bevel;stroke-dasharray:none;paint-order:markers fill stroke"
       d="M -331.34153 -58.288432 L -331.34153 -55.336674 L -356.03305 -55.336674 L -356.14364 -55.336674 L -356.14364 94.622648 L -331.34153 94.622648 L -331.34153 97.57699 L -330.55553 97.57699 L -330.55553 97.578023 L -301.38625 97.577507 L -301.38625 94.622648 L -300.60026 94.622648 L -280.42681 94.622648 L -280.42681 97.577507 L -280.42681 97.578023 L -250.47153 97.578023 L -250.47153 94.622648 L -248.00088 94.622648 C -248.00088 94.622648 -225.70712 94.636658 -225.62292 94.589058 C -225.62292 94.589058 -225.60685 18.943979 -225.61775 18.848979 L -225.61672 -55.286548 L -247.53269 -55.337191 L -250.47102 -55.337191 L -250.47102 -58.287915 L -280.42629 -58.287915 L -280.42629 -55.336674 L -285.51177 -55.336674 L -290.72541 -55.336674 L -301.38574 -55.336674 L -301.38574 -58.288432 L -331.34153 -58.288432 z M -286.16755 -18.148246 L -283.21217 -18.148246 L -283.21217 11.807031 L -286.16755 11.807031 L -286.16755 -18.148246 z M -234.82546 14.652336 C -232.06907 14.652366 -229.83458 16.886855 -229.83455 19.643245 C -229.83458 22.399635 -232.06907 24.634125 -234.82546 24.634155 C -237.58185 24.634125 -239.81634 22.399635 -239.81637 19.643245 C -239.81634 16.886855 -237.58185 14.652366 -234.82546 14.652336 z M -286.16755 27.478943 L -283.21217 27.478943 L -283.21217 57.43422 L -286.16755 57.43422 L -286.16755 27.478943 z " />
    <path
       id="rect2-7-2-4-2-8-9-13-5-5-3"
       style="fill:#ff0000;stroke:#ff0000;stroke-width:0.03;stroke-linecap:square;stroke-linejoin:bevel;stroke-dasharray:none;paint-order:markers fill stroke"
       d="m -530.87446,-58.288626 v 2.951758 h 24.69152 0.11059 V 94.622454 h -24.80211 V 97.5768 h -0.786 v 10e-4 l -29.16928,-5.2e-4 v -2.954859 h -0.78599 -20.17345 v 2.954859 5.2e-4 h -29.95528 v -2.955379 h -2.47065 c 0,0 -22.29376,0.01401 -22.37796,-0.03359 0,0 -0.0161,-75.645079 -0.005,-75.740079 l -10e-4,-74.135527 21.91597,-0.05064 h 2.93833 v -2.950724 h 29.95527 v 2.951241 h 5.08548 5.21364 10.66033 v -2.951758 z m -45.17398,40.140186 h -2.95538 v 29.955277 h 2.95538 z m -51.34209,32.800582 c -2.75639,3e-5 -4.99088,2.234519 -4.99091,4.990909 3e-5,2.75639 2.23452,4.99088 4.99091,4.99091 2.75639,-3e-5 4.99088,-2.23452 4.99091,-4.99091 -3e-5,-2.75639 -2.23452,-4.990879 -4.99091,-4.990909 z m 51.34209,12.826607 h -2.95538 v 29.955277 h 2.95538 z" />
    <path
       id="rect2-7-2-4-2-8-9-11-6-75-4-4"
       style="fill:#00ffff;stroke:#ff0000;stroke-width:0.03;stroke-linecap:square;stroke-linejoin:bevel;stroke-dasharray:none;paint-order:markers fill stroke"
       d="m -506.07299,94.623165 0.003,25.732275 h -2.92333 v 29.95477 h 2.92333 v 39.18778 h -2.9192 v 29.95476 h 2.9192 v 39.18779 h -2.91351 v 29.95528 h 2.91351 v 39.19141 h -2.92281 v 29.95527 h 2.92281 l 0.003,26.86917 149.93452,-0.0524 -5.2e-4,-26.81777 h 2.94349 v -29.95528 h -2.94349 v -39.18985 h 2.95279 v -29.95528 h -2.95279 v -39.18572 h 2.94762 v -29.95476 h -2.94762 v -39.19089 h 2.94349 v -29.95476 h -2.94349 l -0.0108,-25.732312 z m 30.0297,50.000045 h 9.9906 v 9.99009 h -9.9906 z m 19.98069,0 h 9.9906 v 9.99009 h -9.9906 z m 19.98069,0 h 9.99061 v 9.99009 h -9.99061 z m 19.98069,0 h 9.99061 v 9.99009 h -9.99061 z m 19.9807,0 h 9.9906 v 9.99009 h -9.9906 z m -79.92277,29.99972 h 9.9906 v 9.99061 h -9.9906 z m 19.98069,0 h 9.9906 v 9.99061 h -9.9906 z m 19.98069,0 h 9.99061 v 9.99061 h -9.99061 z m 19.98069,0 h 9.99061 v 9.99061 h -9.99061 z m 19.9807,0 h 9.9906 v 9.99061 h -9.9906 z m -79.92277,30.00024 h 9.9906 v 9.9906 h -9.9906 z m 19.98069,0 h 9.9906 v 9.9906 h -9.9906 z m 19.98069,0 h 9.99061 v 9.9906 h -9.99061 z m 19.98069,0 h 9.99061 v 9.9906 h -9.99061 z m 19.9807,0 h 9.9906 v 9.9906 h -9.9906 z m -79.92277,30.00023 h 9.9906 v 9.99009 h -9.9906 z m 19.98069,0 h 9.9906 v 9.99009 h -9.9906 z m 19.98069,0 h 9.99061 v 9.99009 h -9.99061 z m 19.98069,0 h 9.99061 v 9.99009 h -9.99061 z m 19.9807,0 h 9.9906 v 9.99009 h -9.9906 z m -79.92277,29.99972 h 9.9906 v 9.99061 h -9.9906 z m 19.98069,0 h 9.9906 v 9.99061 h -9.9906 z m 19.98069,0 h 9.99061 v 9.99061 h -9.99061 z m 19.98069,0 h 9.99061 v 9.99061 h -9.99061 z m 19.9807,0 h 9.9906 v 9.99061 h -9.9906 z m -79.92277,30.00024 h 9.9906 v 9.99009 h -9.9906 z m 19.98069,0 h 9.9906 v 9.99009 h -9.9906 z m 19.98069,0 h 9.99061 v 9.99009 h -9.99061 z m 19.98069,0 h 9.99061 v 9.99009 h -9.99061 z m 19.9807,0 h 9.9906 v 9.99009 h -9.9906 z m -79.92277,29.99972 h 9.9906 v 9.9906 h -9.9906 z m 19.98069,0 h 9.9906 v 9.9906 h -9.9906 z m 19.98069,0 h 9.99061 v 9.9906 h -9.99061 z m 19.98069,0 h 9.99061 v 9.9906 h -9.99061 z m 19.9807,0 h 9.9906 v 9.9906 h -9.9906 z"
       sodipodi:nodetypes="cccccccccccccccccccccccccccccccccccccccccccccccccccccccccccccccccccccccccccccccccccccccccccccccccccccccccccccccccccccccccccccccccccccccccccccccccccccccccccccccccccccccccccccccccccccccccccccccccccccccccccccccccccc" />
    <path
       id="rect2-7-2-4-2-8-9-11-6-3"
       style="fill:#0000ff;stroke:#ff0000;stroke-width:0.03;stroke-linecap:square;stroke-linejoin:bevel;stroke-dasharray:none;paint-order:markers fill stroke"
       d="M -625.16804 381.61082 L -625.16804 384.55327 L -656.06641 384.55327 L -656.06641 381.61133 L -686.02169 381.61133 L -686.02169 384.55327 L -706.49124 384.55327 L -706.49124 534.50226 L -686.02169 534.50226 L -686.02169 537.43593 L -656.06641 537.43593 L -656.06641 534.50226 L -625.16804 534.50226 L -625.16804 537.43541 L -595.21276 537.43541 L -595.21276 534.50226 L -564.31388 534.50226 L -564.31388 537.43541 L -534.3586 537.43541 L -534.3586 534.50226 L -506.04043 534.50226 L -506.04043 384.55327 L -534.3586 384.55327 L -534.3586 381.61082 L -564.31388 381.61082 L -564.31388 384.55327 L -595.21276 384.55327 L -595.21276 381.61082 L -625.16804 381.61082 z M -578.96621 421.71328 L -576.01084 421.71328 L -576.01084 451.66855 L -578.96621 451.66855 L -578.96621 421.71328 z M -620.8944 457.5421 A 1.9849597 1.9737035 0 0 1 -618.90951 459.51562 A 1.9849597 1.9737035 0 0 1 -620.8944 461.48966 A 1.9849597 1.9737035 0 0 1 -622.87981 459.51562 A 1.9849597 1.9737035 0 0 1 -620.8944 457.5421 z M -610.94979 457.55708 A 1.9849597 1.9737035 0 0 1 -608.9649 459.53112 A 1.9849597 1.9737035 0 0 1 -610.94979 461.50465 A 1.9849597 1.9737035 0 0 1 -612.93468 459.53112 A 1.9849597 1.9737035 0 0 1 -610.94979 457.55708 z M -578.96621 467.33995 L -576.01084 467.33995 L -576.01084 497.29523 L -578.96621 497.29523 L -578.96621 467.33995 z " />
    <path
       id="rect2-7-2-4-2-8-9-1"
       style="fill:#00ffff;stroke:#ff0000;stroke-width:0.03;stroke-linecap:square;stroke-linejoin:bevel;stroke-dasharray:none;paint-order:markers fill stroke"
       d="m 479.79814,-295.58045 v 2.88871 h -24.80882 v 149.9216 h 24.78918 v 2.90421 h 29.95476 v -2.90421 h 20.97598 v 2.92023 h 29.95528 v -2.92023 h 24.94473 c -3.7e-4,-5e-4 0.002,-0.003 0.002,-0.003 -0.31556,-24.356 -6.54097,-44.32021 18.12913,-62.83544 0.9477,-0.55515 1.83152,-1.21281 2.63549,-1.96112 0.0585,-0.0415 0.11034,-0.0847 0.16899,-0.12609 l 0.0274,-0.0708 c 2.92019,-2.81248 4.57615,-6.6882 4.58991,-10.7425 -0.0137,-4.05532 -2.19968,-7.93193 -5.12114,-10.74456 l -0.0232,-0.0739 c -0.0532,-0.0329 -0.0984,-0.0679 -0.15142,-0.10077 -1.22361,-1.15293 -2.63252,-2.09174 -4.1677,-2.77709 -21.47614,-17.27075 -16.18449,-35.35306 -16.08946,-60.46711 v -0.0191 h -0.003 -24.94576 v -2.88871 h -29.95528 v 2.88871 h -20.95169 v -2.88871 z m 45.16572,40.07765 h 2.95537 v 29.95528 h -2.95537 z m 71.91964,32.79439 c 2.75745,3e-5 4.99272,2.23552 4.99246,4.99297 -3e-5,2.75725 -2.23521,4.99243 -4.99246,4.99246 -2.75725,-3e-5 -4.99243,-2.23521 -4.99246,-4.99246 -2.6e-4,-2.75745 2.23501,-4.99294 4.99246,-4.99297 z m -71.91964,12.8328 h 2.95537 v 29.95528 h -2.95537 z" />
    <g
       id="g1"
       transform="translate(-119.14416,-81.623844)"
       style="stroke:#ff0000;stroke-width:0.03;stroke-dasharray:none">
      <path
         id="path2-4-0"
         style="fill:#d4ff2a;stroke:#ff0000;stroke-width:0.03;stroke-linecap:square;stroke-linejoin:bevel;stroke-dasharray:none;paint-order:markers fill stroke"
         d="M 621.16459,-11.867881 C 697.97869,133.67081 553.17372,167.14859 551.17042,278.06997 l 20.57083,-0.006 v -2.95537 h 29.95476 v 2.95537 l 30.89889,-5.1e-4 v -2.95538 h 29.95529 v 2.95538 h 30.89889 v -2.95538 h 29.95528 v 2.95538 l 17.73432,0.005 -0.0289,-26.81696 h -2.95538 v -29.95528 h 2.95538 v -39.18835 h -2.95538 v -29.95528 h 2.95538 v -39.18831 h -2.95542 V 83.009529 h 2.95538 v -39.18882 h -2.95538 v -29.95528 h 2.95538 l -0.003,-25.73176 h -14.21836 v 2.9538202 h -29.95527 v -2.9543402 l -20.95945,-5.1e-4 v 2.9548502 h -29.95527 v -2.9548502 z"
         sodipodi:nodetypes="ccccccccccccccccccccccccccccccccccccccccc" />
      <rect
         style="fill:#6c5353;stroke:#ff0000;stroke-width:0.03;stroke-linecap:square;stroke-dasharray:none;paint-order:markers fill stroke"
         id="rect1-3"
         width="20"
         height="60"
         x="591.30719"
         y="25.950094"
         inkscape:transform-center-x="-0.08875563"
         inkscape:transform-center-y="-31.543056"
         transform="rotate(18.748138)" />
    </g>
    <g
       id="g2"
       transform="translate(770.48925,-196.46921)"
       style="stroke:#ff0000;stroke-width:0.03;stroke-dasharray:none">
      <rect
         style="fill:#ff00ff;stroke:#ff0000;stroke-width:0.03;stroke-dasharray:none"
         id="rect1-7-4"
         width="69.976372"
         height="149.89091"
         x="320.55179"
         y="424.89096"
         ry="0"
         transform="scale(-1,1)" />
      <g
         id="g2-1-2"
         transform="matrix(0,-1,-1,0,129.23286,125.71895)"
         style="stroke:#ff0000;stroke-width:0.03;stroke-dasharray:none">
        <rect
           style="fill:#00ffff;stroke:#ff0000;stroke-width:0.03;stroke-linecap:square;stroke-linejoin:bevel;stroke-dasharray:none;paint-order:markers fill stroke"
           id="rect2-7-2-4-2-8-9-11-6-7-4-8-1-3"
           width="29.955217"
           height="2.9552176"
           x="-411.90854"
           y="446.82944"
           ry="0" />
        <rect
           style="fill:#00ffff;stroke:#ff0000;stroke-width:0.03;stroke-linecap:square;stroke-linejoin:bevel;stroke-dasharray:none;paint-order:markers fill stroke"
           id="rect2-7-2-4-2-8-7-2-5-2"
           width="29.955217"
           height="2.9552176"
           x="-366.28165"
           y="446.82944"
           ry="0" />
      </g>
    </g>
    <path
       id="rect2-7-2-4-2-8-9-11-6-7-4-8-1-3-1-1"
       style="fill:#ff00ff;stroke:#ff0000;stroke-width:0.03;stroke-linecap:square;stroke-linejoin:bevel;stroke-dasharray:none;paint-order:markers fill stroke"
       d="m -468.86685,384.58896 v 2.94969 h -37.1441 v 279.15246 h 37.1782 v 4.99555 h -0.034 v 2.95074 h 29.9553 v -2.95073 h 15.6719 v 2.95073 h 29.95515 v -2.95073 h -0.037 v -4.99556 h 37.2128 V 387.53865 h -37.1761 v -2.94969 h -29.95515 v 2.94969 h -15.672 v -2.94969 z"
       sodipodi:nodetypes="ccccccccccccccccccccccccc" />
    <path
       id="rect1-8"
       style="fill:#000000;stroke:#ff0000;stroke-width:0.0139919"
       d="m -353.1582,384.63367 v 57.98613 h 157.98622 v -57.98613 z m 31.11541,16.99638 h 70.9936 v 23.99388 h -70.9936 z m 93.37001,0.48731 a 2.3735211,2.3735211 0 0 1 2.3735,2.3735 2.3735211,2.3735211 0 0 1 -2.3735,2.37401 2.3735211,2.3735211 0 0 1 -2.37349,-2.37401 2.3735211,2.3735211 0 0 1 2.37349,-2.3735 z m -0.0222,8.63668 a 2.3735211,2.3735211 0 0 1 2.3735,2.3735 2.3735211,2.3735211 0 0 1 -2.3735,2.3735 2.3735211,2.3735211 0 0 1 -2.3735,-2.3735 2.3735211,2.3735211 0 0 1 2.3735,-2.3735 z m 0,9.65729 a 2.3735211,2.3735211 0 0 1 2.3735,2.3735 2.3735211,2.3735211 0 0 1 -2.3735,2.3735 2.3735211,2.3735211 0 0 1 -2.3735,-2.3735 2.3735211,2.3735211 0 0 1 2.3735,-2.3735 z" />
    <path
       id="path1-1"
       style="fill:#ffff00;stroke:#ff0000;stroke-width:0.0622631"
       d="m -431.10839,-12.431531 a 52.468868,52.468868 0 0 0 -52.46915,52.46915 52.468868,52.468868 0 0 0 52.46915,52.46862 52.468868,52.468868 0 0 0 52.46863,-52.46862 52.468868,52.468868 0 0 0 -52.46863,-52.46915 z m -40.52001,50.48012 a 1.9889956,1.9889956 0 0 1 1.98903,1.98903 1.9889956,1.9889956 0 0 1 -1.98903,1.9885 1.9889956,1.9889956 0 0 1 -1.98902,-1.9885 1.9889956,1.9889956 0 0 1 1.98902,-1.98903 z m 9.94461,0 a 1.9889956,1.9889956 0 0 1 1.98903,1.98903 1.9889956,1.9889956 0 0 1 -1.98903,1.9885 1.9889956,1.9889956 0 0 1 -1.98851,-1.9885 1.9889956,1.9889956 0 0 1 1.98851,-1.98903 z" />
    <path
       id="path1"
       style="fill:#ffff00;stroke:#ff0000;stroke-width:0.0622631"
       d="m -431.10839,-118.95631 a 52.468868,52.468868 0 0 0 -52.46915,52.468652 52.468868,52.468868 0 0 0 52.46915,52.468626 52.468868,52.468868 0 0 0 52.46863,-52.468626 52.468868,52.468868 0 0 0 -52.46863,-52.468652 z m 0,3.49746 a 48.970943,48.970943 0 0 1 48.97065,48.971192 48.970943,48.970943 0 0 1 -48.97065,48.971166 48.970943,48.970943 0 0 1 -48.97118,-48.971166 48.970943,48.970943 0 0 1 48.97118,-48.971192 z" />
    <g
       id="g3"
       transform="translate(334.85104,-47.431377)"
       style="fill:#000000">
      <ellipse
         style="fill:#000000;stroke:#000000;stroke-width:0.03;stroke-dasharray:none"
         id="path2"
         cx="-471.62433"
         cy="40.022297"
         rx="1.9849597"
         ry="1.9737035" />
      <ellipse
         style="fill:#000000;stroke:#000000;stroke-width:0.03;stroke-dasharray:none"
         id="path2-8"
         cx="-461.67972"
         cy="40.037621"
         rx="1.9849597"
         ry="1.9737035" />
    </g>
  </g>
</svg>
